<svg xmlns="http://www.w3.org/2000/svg" viewBox="0 0 24 21.394">
  <g id="home" transform="translate(0.001 -27.797)">
    <g id="Group_179" data-name="Group 179" transform="translate(-0.001 27.798)">
      <g id="Group_178" data-name="Group 178" transform="translate(0 0)">
        <path id="Path_68" data-name="Path 68" d="M23.744,36.247l-11.376-8.33a.623.623,0,0,0-.737,0L.255,36.247a.624.624,0,0,0,.737,1.006L12,29.194l11.008,8.06a.624.624,0,0,0,.737-1.006Z" transform="translate(0.001 -27.798)"/>
      </g>
    </g>
    <g id="Group_181" data-name="Group 181" transform="translate(2.646 37.395)">
      <g id="Group_180" data-name="Group 180">
        <path id="Path_69" data-name="Path 69" d="M74.536,232.543a.624.624,0,0,0-.624.624v9.926H68.924v-5.418a3.118,3.118,0,0,0-6.236,0v5.418H57.7v-9.926a.624.624,0,1,0-1.247,0v10.549a.624.624,0,0,0,.624.624h6.236a.623.623,0,0,0,.621-.575.469.469,0,0,0,0-.049v-6.042a1.871,1.871,0,0,1,3.742,0v6.042a.457.457,0,0,0,0,.048.623.623,0,0,0,.621.576h6.236a.624.624,0,0,0,.624-.624V233.167A.624.624,0,0,0,74.536,232.543Z" transform="translate(-56.452 -232.543)"/>
      </g>
    </g>
  </g>
</svg>
